<svg width="814" height="275" viewBox="0 0 814 275" fill="none" xmlns="http://www.w3.org/2000/svg">
<path d="M94.6068 23.6399L186.647 215H153.107L136.727 177.56H49.1068L32.7268 215H0.226807L91.7468 23.6399H94.6068ZM81.6068 105.02L60.8068 151.3H125.287L104.747 105.28L93.5668 79.0199H93.0468L81.6068 105.02ZM173.984 95.6599H205.964L231.704 149.48L240.024 171.06L248.344 149.48L273.824 95.6599H305.024L242.364 215H236.904L173.984 95.6599ZM375.744 217.6C364.997 217.6 355.031 215.087 345.844 210.06C336.831 204.86 329.551 197.58 324.004 188.22C318.631 178.687 315.944 167.593 315.944 154.94C315.944 142.46 318.284 131.54 322.964 122.18C327.817 112.82 334.664 105.54 343.504 100.34C352.344 95.1399 362.744 92.5399 374.704 92.5399C381.637 92.5399 388.137 93.7532 394.204 96.1799C400.271 98.6066 405.384 101.64 409.544 105.28C413.704 108.747 416.477 112.213 417.864 115.68L418.384 95.6599H445.164V215H418.644L418.124 193.94C415.177 200.18 409.804 205.727 402.004 210.58C394.204 215.26 385.451 217.6 375.744 217.6ZM380.424 194.2C390.304 194.2 398.624 190.82 405.384 184.06C412.144 177.127 415.524 168.113 415.524 157.02V155.2C415.524 147.747 413.964 141.073 410.844 135.18C407.724 129.287 403.477 124.693 398.104 121.4C392.731 118.107 386.837 116.46 380.424 116.46C369.331 116.46 360.751 120.1 354.684 127.38C348.617 134.487 345.584 143.76 345.584 155.2C345.584 166.813 348.531 176.26 354.424 183.54C360.491 190.647 369.157 194.2 380.424 194.2ZM485.265 23.8999H513.085V215H485.265V23.8999ZM608.135 217.6C595.828 217.6 584.908 214.827 575.375 209.28C565.842 203.733 558.475 196.193 553.275 186.66C548.075 177.127 545.475 166.553 545.475 154.94C545.475 143.5 547.988 133.013 553.015 123.48C558.215 113.947 565.582 106.407 575.115 100.86C584.648 95.3132 595.655 92.5399 608.135 92.5399C620.615 92.5399 631.535 95.3132 640.895 100.86C650.428 106.407 657.708 113.947 662.735 123.48C667.935 133.013 670.535 143.5 670.535 154.94C670.535 166.553 667.935 177.127 662.735 186.66C657.535 196.193 650.168 203.733 640.635 209.28C631.275 214.827 620.442 217.6 608.135 217.6ZM608.915 194.72C618.968 194.72 626.855 190.993 632.575 183.54C638.468 176.087 641.415 166.727 641.415 155.46C641.415 144.193 638.295 134.747 632.055 127.12C625.815 119.32 617.582 115.42 607.355 115.42C597.475 115.42 589.502 119.233 583.435 126.86C577.542 134.487 574.595 144.02 574.595 155.46C574.595 166.553 577.802 175.913 584.215 183.54C590.628 190.993 598.862 194.72 608.915 194.72ZM700.523 95.6599H728.083L728.343 117.5C731.636 110.22 736.836 104.24 743.943 99.5599C751.049 94.8799 759.369 92.5399 768.903 92.5399C781.209 92.5399 790.656 95.1399 797.243 100.34C803.829 105.367 808.249 112.473 810.503 121.66C812.756 130.847 813.883 142.807 813.883 157.54V215H785.803V158.32C785.803 143.24 784.329 132.407 781.383 125.82C778.436 119.06 772.369 115.68 763.183 115.68C757.983 115.68 752.696 117.327 747.323 120.62C741.949 123.74 737.443 128.333 733.803 134.4C730.336 140.467 728.603 147.573 728.603 155.72V215H700.523V95.6599Z" fill="white"/>
<path d="M482 230.528L481 16L499 1.4472e-05L518 15.3971L518 230.528C503.413 233.838 495.526 233.81 482 230.528Z" fill="#DDDDDD"/>
<path d="M494 232.728L494.5 4L499 -2.18557e-07L504 4L505 232.728L499.5 233L494 232.728Z" fill="#F0F0F0"/>
<path d="M481 236H518C518 236 517.288 246 516.577 246C515.865 246 483.135 246 482.423 246C481.712 246 481 236 481 236Z" fill="#714012"/>
<path d="M492 243H508C508 243 507.308 273 507 273C506.692 273 493.308 273 493 273C492.692 273 492 243 492 243Z" fill="#714012"/>
<path d="M492 246C492 245.5 493 253.5 499 259C505 264.5 507 271.5 507 273C507 274.5 493.498 274.5 492.999 273C492.5 271.5 492 246.5 492 246Z" fill="#A8560A"/>
<path d="M448 229H552C552 229 550 239 548 239C546 239 454 239 452 239C450 239 448 229 448 229Z" fill="#5F3611"/>
</svg>
